<svg xmlns="http://www.w3.org/2000/svg" viewBox="0 0 100 125" x="0px" y="0px"><title>Kitchen 2</title><g data-name="Capa 2"><path d="M36.84,39.28A28.9,28.9,0,0,0,24.41,50.86,1.71,1.71,0,0,0,25,53.19a1.79,1.79,0,0,0,.86.23,1.72,1.72,0,0,0,1.48-.85,25.59,25.59,0,0,1,11-10.23,1.7,1.7,0,1,0-1.49-3.06Zm0,0"/><path d="M88.8,63.66H85.3A35.85,35.85,0,0,0,54.23,29.87a5.19,5.19,0,0,0,.43-2.05,5.12,5.12,0,1,0-10.24,0,5,5,0,0,0,.44,2.05A35.83,35.83,0,0,0,13.79,63.66h-3.5a1.71,1.71,0,0,0-1.71,1.7v1.71a13,13,0,0,0,2.18,7.2,6.82,6.82,0,0,0,5.68,3h66.2a6.82,6.82,0,0,0,5.68-3,12.91,12.91,0,0,0,2.18-7.2V65.36a1.7,1.7,0,0,0-1.7-1.7ZM49.54,26.11a1.71,1.71,0,1,1,0,3.41,1.71,1.71,0,0,1,0-3.41Zm0,6.83A32.43,32.43,0,0,1,81.88,63.66H17.2A32.44,32.44,0,0,1,49.54,32.94ZM87.09,67.07a9.56,9.56,0,0,1-1.61,5.31,3.4,3.4,0,0,1-2.84,1.52H16.44a3.42,3.42,0,0,1-2.84-1.52A9.55,9.55,0,0,1,12,67.07H87.09Zm0,0"/></g><text x="0" y="115" fill="#000000" font-size="5px" font-weight="bold" font-family="'Helvetica Neue', Helvetica, Arial-Unicode, Arial, Sans-serif">Created by Lucky Day</text><text x="0" y="120" fill="#000000" font-size="5px" font-weight="bold" font-family="'Helvetica Neue', Helvetica, Arial-Unicode, Arial, Sans-serif">from the Noun Project</text></svg>