<svg xmlns="http://www.w3.org/2000/svg" xmlns:xlink="http://www.w3.org/1999/xlink" version="1.1" x="0px" y="0px" viewBox="0 0 100 125" enable-background="new 0 0 100 100" xml:space="preserve"><path d="M90.424,58.438H51.209c-0.443-5.758-5.252-10.547-11.406-10.547H25.754c-4.139,0-7.671,2.166-9.675,5.337l-0.286,0.172  c-3.853,2.395-6.153,6.529-6.153,11.059c0,4.793,2.624,9.185,6.869,11.473l1.556,0.794l0.68,2.917  c1.52,6.523,7.335,11.139,14.034,11.139h0c6.698,0,12.513-4.616,14.034-11.139l4.086-17.533c2.732,3.462,6.91,5.536,11.411,5.536  c5.143,0,9.864-2.706,12.483-7.098h15.631V58.438z M11.75,64.458c0-2.732,1.003-5.29,2.762-7.256  c-0.286,1.509-0.273,3.107,0.103,4.722l2.822,12.108C13.928,72.116,11.75,68.454,11.75,64.458z M48.888,61.445l-4.13,17.718  c-1.305,5.598-6.231,9.508-11.979,9.508c-5.748,0-10.675-3.91-11.979-9.508l-4.13-17.718c-0.65-2.788-0.002-5.674,1.778-7.917  C20.228,51.286,22.891,50,25.754,50h14.049c2.863,0,5.526,1.286,7.306,3.529C48.889,55.772,49.538,58.657,48.888,61.445z   M62.31,65.536c-3.959,0-7.632-1.874-9.96-4.989h19.92C69.942,63.662,66.269,65.536,62.31,65.536z M67.423,56.328h10.143  l4.671-21.797h-8.399l1.786-9.093h7.012v-2.109h-8.747l-2.2,11.203h-8.936L67.423,56.328z M75.861,54.219h-6.732l-3.767-17.578  h14.266L75.861,54.219z M20.32,45.825h24.917c5.925,0,10.745-4.82,10.745-10.745c0-12.031-9.788-21.819-21.819-21.819h-0.33v-2.118  c1.227-0.436,2.109-1.605,2.109-2.979C35.943,6.419,34.523,5,32.779,5s-3.164,1.419-3.164,3.164c0,1.374,0.882,2.544,2.109,2.979  v2.118h-0.33c-12.031,0-21.819,9.788-21.819,21.819C9.576,41.005,14.396,45.825,20.32,45.825z M32.779,7.109  c0.582,0,1.055,0.473,1.055,1.055s-0.473,1.055-1.055,1.055s-1.055-0.473-1.055-1.055S32.197,7.109,32.779,7.109z M31.394,15.371  h2.769c10.868,0,19.709,8.842,19.709,19.709c0,4.762-3.874,8.635-8.635,8.635H20.32c-4.762,0-8.635-3.874-8.635-8.635  C11.685,24.213,20.527,15.371,31.394,15.371z M23.617,30.956h-2.201c0.369-1.86,2.011-3.262,3.976-3.262  c1.962,0,3.607,1.403,3.976,3.262h-2.201c-0.302-0.679-0.984-1.153-1.775-1.153S23.919,30.277,23.617,30.956z M38.411,30.956h-2.204  c0.369-1.86,2.011-3.262,3.973-3.262c1.965,0,3.607,1.403,3.976,3.262h-2.201c-0.302-0.679-0.984-1.153-1.775-1.153  C39.392,29.803,38.71,30.277,38.411,30.956z M32.779,59.037c-2.985,0-5.414,2.429-5.414,5.414c0,2.986,2.429,5.414,5.414,5.414  c2.986,0,5.414-2.429,5.414-5.414C38.193,61.466,35.764,59.037,32.779,59.037z M32.779,67.756c-1.825,0-3.305-1.48-3.305-3.305  c0-1.825,1.48-3.305,3.305-3.305c1.825,0,3.305,1.48,3.305,3.305C36.084,66.277,34.604,67.756,32.779,67.756z M38.404,93.945  c0,0.582-0.472,1.055-1.055,1.055h-9.141c-0.582,0-1.055-0.472-1.055-1.055s0.472-1.055,1.055-1.055h9.141  C37.931,92.891,38.404,93.363,38.404,93.945z M35.776,38.157h2.59c-1.065,1.999-3.169,3.364-5.587,3.364s-4.522-1.365-5.587-3.364  h2.59c0.765,0.774,1.826,1.255,2.998,1.255S35.011,38.93,35.776,38.157z M21.529,35.509h22.5c2.52,0,4.57-2.05,4.57-4.57v-3.252  c0-2.52-2.05-4.57-4.57-4.57h-22.5c-2.52,0-4.57,2.05-4.57,4.57v3.252C16.958,33.459,19.009,35.509,21.529,35.509z M19.068,27.687  c0-1.357,1.104-2.461,2.461-2.461h22.5c1.357,0,2.461,1.104,2.461,2.461v3.252c0,1.357-1.104,2.461-2.461,2.461h-22.5  c-1.357,0-2.461-1.104-2.461-2.461V27.687z"/><text x="0" y="115" fill="#000000" font-size="5px" font-weight="bold" font-family="'Helvetica Neue', Helvetica, Arial-Unicode, Arial, Sans-serif">Created by Laymik</text><text x="0" y="120" fill="#000000" font-size="5px" font-weight="bold" font-family="'Helvetica Neue', Helvetica, Arial-Unicode, Arial, Sans-serif">from the Noun Project</text></svg>