<svg xmlns="http://www.w3.org/2000/svg" xmlns:xlink="http://www.w3.org/1999/xlink" version="1.1" x="0px" y="0px" viewBox="0 0 68 85" style="enable-background:new 0 0 68 68;" xml:space="preserve"><g><g><path d="M52.7658691,66.7123566H15.2341309c-1.6542969,0-3-1.3457031-3-3V12.6039591c0-1.6542969,1.3457031-3,3-3h37.5317383    c1.6542969,0,3,1.3457031,3,3v51.1083984C55.7658691,65.3666534,54.420166,66.7123566,52.7658691,66.7123566z     M15.2341309,11.6039591c-0.5512695,0-1,0.4482422-1,1v51.1083984c0,0.5517578,0.4487305,1,1,1h37.5317383    c0.5512695,0,1-0.4482422,1-1V12.6039591c0-0.5517578-0.4487305-1-1-1H15.2341309z"/></g><g><path d="M14.9040527,11.62642c-0.4399414,0-0.8432617-0.2919922-0.9643555-0.7373047    c-0.1450195-0.5322266,0.1689453-1.0820313,0.7021484-1.2275391l30.3701172-8.2763672    c0.9213867-0.2353516,1.8613281-0.0400391,2.5981445,0.5332031c0.7368164,0.5722655,1.159668,1.4355468,1.159668,2.3691406    v6.3144536c0,0.5527344-0.4477539,1-1,1s-1-0.4472656-1-1V4.2875524c0-0.3115234-0.1411133-0.5986328-0.3867188-0.7900391    c-0.2451172-0.1894531-0.5581055-0.2578125-0.8608398-0.1787109l-30.3549805,8.2724609    C15.0793457,11.6156778,14.9909668,11.62642,14.9040527,11.62642z"/></g><g><g><g><path d="M46.9396973,39.914505c-0.5522461,0-1-0.4472656-1-1c0-6.5898438-5.3564453-11.9501953-11.9399414-11.9501953      S22.0598145,32.3246613,22.0598145,38.914505c0,0.5527344-0.4477539,1-1,1s-1-0.4472656-1-1      c0-7.6923828,6.253418-13.9501953,13.9399414-13.9501953s13.9399414,6.2578125,13.9399414,13.9501953      C47.9396973,39.4672394,47.4919434,39.914505,46.9396973,39.914505z"/></g><g><path d="M47.4899902,44.4750519H20.5100098c-1.8085938,0-3.2802734-1.4716797-3.2802734-3.2802734      s1.4716797-3.2802734,3.2802734-3.2802734h26.9799805c1.8085938,0,3.2797852,1.4716797,3.2797852,3.2802734      S49.298584,44.4750519,47.4899902,44.4750519z M20.5100098,39.914505c-0.7060547,0-1.2802734,0.5742188-1.2802734,1.2802734      s0.5742188,1.2802734,1.2802734,1.2802734h26.9799805c0.7055664,0,1.2797852-0.5742188,1.2797852-1.2802734      s-0.5742188-1.2802734-1.2797852-1.2802734H20.5100098z"/></g><g><path d="M32.0300293,27.1147003c-0.4438477,0-0.8491211-0.296875-0.9667969-0.7460938      c-0.2563477-0.9785156-0.6162109-1.9257813-0.9975586-2.9287109c-0.1855469-0.4765625-0.2851563-1.0068359-0.2851563-1.5253906      c0-1.3408203,0.6147461-2.5712891,1.6870117-3.3759766c1.0786133-0.8095703,2.4604492-1.0507813,3.7924805-0.6640625      c1.2856445,0.3837891,2.3334961,1.4082031,2.7421875,2.6728516c0.3554688,1.1162109,0.2700195,2.2832031-0.2392578,3.2890625      c-0.3579102,0.6982422-0.6328125,1.4902344-0.8686523,2.4960938c-0.1259766,0.5390625-0.6650391,0.8701172-1.2016602,0.7460938      c-0.5375977-0.1259766-0.871582-0.6640625-0.7456055-1.2011719c0.2734375-1.1689453,0.6020508-2.1054688,1.0336914-2.9482422      c0.269043-0.53125,0.3110352-1.1611328,0.1171875-1.7705078c-0.2084961-0.6445313-0.746582-1.1699219-1.4038086-1.3662109      c-0.7250977-0.2099609-1.4477539-0.0888672-2.0258789,0.3457031c-0.5639648,0.4228516-0.8876953,1.0703125-0.8876953,1.7763672      c0,0.2724609,0.0527344,0.5517578,0.1518555,0.8066406c0.3862305,1.015625,0.7817383,2.0576172,1.0654297,3.1396484      c0.1401367,0.5341797-0.1796875,1.0810547-0.7138672,1.2216797      C32.1989746,27.1039581,32.1135254,27.1147003,32.0300293,27.1147003z"/></g></g><g><g><path d="M34.7653809,51.6225128H18.2331543c-0.5522461,0-1-0.4472656-1-1s0.4477539-1,1-1h16.5322266      c0.5522461,0,1,0.4472656,1,1S35.317627,51.6225128,34.7653809,51.6225128z"/></g><g><path d="M49.767334,58.6225128H18.2346191c-0.5522461,0-1-0.4472656-1-1s0.4477539-1,1-1H49.767334c0.5522461,0,1,0.4472656,1,1      S50.3195801,58.6225128,49.767334,58.6225128z"/></g></g></g></g><text x="0" y="83" fill="#000000" font-size="5px" font-weight="bold" font-family="'Helvetica Neue', Helvetica, Arial-Unicode, Arial, Sans-serif">Created by VectorsLab</text><text x="0" y="88" fill="#000000" font-size="5px" font-weight="bold" font-family="'Helvetica Neue', Helvetica, Arial-Unicode, Arial, Sans-serif">from the Noun Project</text></svg>