<svg xmlns="http://www.w3.org/2000/svg" xmlns:xlink="http://www.w3.org/1999/xlink" xml:space="preserve" version="1.1" style="shape-rendering:geometricPrecision;text-rendering:geometricPrecision;image-rendering:optimizeQuality;" viewBox="0 0 274 395" x="0px" y="0px" fill-rule="evenodd" clip-rule="evenodd"><defs><style type="text/css">
   
    .fil0 {fill:black}
   
  </style></defs><g><path class="fil0" d="M5 205c69,-57 200,-55 265,7 3,3 5,8 3,12 -32,126 -248,122 -273,-7 -1,-4 1,-9 5,-12zm16 13c24,101 201,105 232,6 -58,-51 -171,-52 -232,-6z"/><path class="fil0" d="M137 0c39,0 71,32 71,71 0,39 -32,71 -71,71 -39,0 -71,-32 -71,-71 0,-39 32,-71 71,-71zm0 20c-28,0 -51,23 -51,51 0,28 23,50 51,50 28,0 50,-22 50,-50 0,-28 -22,-51 -50,-51z"/></g><text x="0" y="331" fill="#000000" font-size="5px" font-weight="bold" font-family="'Helvetica Neue', Helvetica, Arial-Unicode, Arial, Sans-serif">Created by Malikov</text><text x="0" y="336" fill="#000000" font-size="5px" font-weight="bold" font-family="'Helvetica Neue', Helvetica, Arial-Unicode, Arial, Sans-serif">from the Noun Project</text></svg>